<?xml version="1.0" standalone="no"?>
<!DOCTYPE svg PUBLIC "-//W3C//DTD SVG 20010904//EN"
 "http://www.w3.org/TR/2001/REC-SVG-20010904/DTD/svg10.dtd">
<svg version="1.0" xmlns="http://www.w3.org/2000/svg"
 width="20px" height="20px" viewBox="0 0 1280.000000 1134.000000"
 preserveAspectRatio="xMidYMid meet">
<metadata>
Created by potrace 1.15, written by Peter Selinger 2001-2017
</metadata>
<g transform="translate(0.000000,1134.000000) scale(0.100000,-0.100000)"
fill="#000000" stroke="none">
<path d="M2400 11331 c-1563 -7 -1408 1 -1572 -81 -197 -98 -415 -315 -568
-565 -62 -100 -150 -289 -207 -440 l-48 -130 0 -3380 c0 -3611 -2 -3483 49
-3633 161 -472 634 -840 1296 -1007 193 -48 350 -72 669 -100 90 -8 166 -17
169 -20 21 -20 -86 -259 -172 -389 -98 -146 -373 -426 -696 -707 -175 -153
-341 -321 -368 -375 -11 -21 -23 -54 -27 -72 -12 -58 -7 -181 10 -231 20 -60
74 -125 128 -153 89 -45 263 -58 527 -38 817 62 1532 314 2244 793 252 170
428 319 706 597 186 186 332 354 462 532 l80 108 141 0 c78 0 1577 5 3331 10
l3189 10 91 44 c176 85 365 228 553 418 189 190 307 352 368 503 27 69 28 72
37 400 6 201 8 1620 6 3630 l-4 3300 -53 102 c-101 197 -213 344 -388 513
-111 107 -334 283 -388 305 -45 19 -159 34 -355 46 -195 13 -6775 19 -9210 10z
m9295 -738 c143 -84 292 -233 378 -378 l42 -70 0 -3305 c0 -3457 0 -3462 -42
-3603 -18 -60 -31 -81 -129 -197 -99 -117 -219 -229 -284 -265 l-55 -30 -385
-6 c-212 -4 -1778 -8 -3482 -8 l-3096 -1 -39 -48 c-57 -68 -117 -160 -323
-492 -100 -162 -204 -325 -231 -362 -170 -229 -587 -511 -1037 -702 -115 -48
-462 -170 -468 -163 -2 2 10 32 27 68 99 208 202 484 243 649 33 135 44 245
56 568 l10 264 -88 106 -89 107 -699 6 c-801 6 -751 0 -882 99 -168 126 -320
356 -411 624 l-41 118 0 2962 c1 1628 5 3071 9 3206 8 210 12 254 31 310 54
161 214 388 348 493 115 90 34 81 862 88 404 3 2753 5 5220 4 l4486 -1 69 -41z"/>
</g>
</svg>
